:SAMPLES-PER-SECOND 30
:FULLY-SPECIFIED
:DEGREES
1364
root  11.1935 40.0538 14.7062 -178.836 78.3907 -177.233
RightUpLeg  -5.72935 -22.8027 -6.63145
RightLeg  18.4044 -11.1042 -1.6214
RightFoot  -5.58619 -0.136421 1.95815
RightToes  0.000481921 0.542163 -0.142578
Spine  13.7816 1.04824 2.34734
Spine1  8.88184 1.21676 1.1022
HEad  5.86862 -6.23071 7.71073
LeftShoulder1  5.44632 -11.2647 -30.8307
LeftArm  0.568371 2.05274 -49.1645
LeftForeArm  -158.086 -49.4263 -170.317
LeftHand  -0.25398 0.0180481 5.50724
RightShoulder  4.8705 9.77996 30.7132
RightArm  -9.13115 10.8663 51.1006
RightForeArm  177.516 48.4196 169.09
RightHand  -1.56788 6.64895 -15.4367
LeftUpLeg  -8.49053 16.3276 11.3623
LeftLeg  10.6251 3.1149 -1.05506
LeftFoot  4.40947 0.961008 -7.13589
LeftToes  1.06245e-005 4.65869e-005 -8.65517e-006
1365
root  11.2426 40.0828 14.7168 179.862 77.8734 -178.759
RightUpLeg  -5.72138 -23.0532 -6.8924
RightLeg  18.3056 -11.3189 -1.74793
RightFoot  -5.62561 -0.143929 2.11693
RightToes  0.000481921 0.542163 -0.142578
Spine  13.8626 1.12139 2.43819
Spine1  8.46737 1.43212 0.584815
HEad  6.00702 -6.80883 7.41454
LeftShoulder1  5.41576 -11.0915 -31.0608
LeftArm  -0.150203 4.45206 -46.7049
LeftForeArm  -160.26 -48.6759 -170.452
LeftHand  -0.25398 0.0180481 5.50724
RightShoulder  4.87965 9.81371 30.6865
RightArm  -8.66135 10.3459 50.0994
RightForeArm  173.034 50.5477 167.944
RightHand  -1.84759 7.6981 -16.7078
LeftUpLeg  -8.3495 15.0668 11.107
LeftLeg  9.83018 3.93103 -1.28088
LeftFoot  4.79485 0.971872 -7.05602
LeftToes  1.06245e-005 4.65869e-005 -8.65517e-006
1366
root  11.2181 40.0002 14.714 178.436 77.6588 179.817
RightUpLeg  -6.58388 -25.0662 -6.82895
RightLeg  19.703 -9.34829 -2.57108
RightFoot  -6.18064 -0.1458 2.30446
RightToes  0.000481921 0.542163 -0.142578
Spine  14.6182 1.20891 2.46069
Spine1  7.57536 1.66617 0.0602985
HEad  5.74512 -7.28265 7.16362
LeftShoulder1  5.4766 -11.2071 -31.1844
LeftArm  -0.931157 6.12783 -44.367
LeftForeArm  -161.586 -48.5895 -170.401
LeftHand  -0.25398 0.0180481 5.50724
RightShoulder  4.73637 9.76615 29.7237
RightArm  -9.14074 11.4294 49.0051
RightForeArm  169.282 52.85 166.674
RightHand  -2.12561 8.37789 -18.2213
LeftUpLeg  -9.0259 15.5708 10.5041
LeftLeg  10.9659 3.14044 -0.937262
LeftFoot  4.21661 0.944321 -7.09599
LeftToes  1.06245e-005 4.65869e-005 -8.65517e-006
1367
root  11.1323 39.8021 14.6919 177.021 77.5365 178.633
RightUpLeg  -8.03038 -26.3389 -6.72192
RightLeg  22.4362 -7.86352 -3.7682
RightFoot  -7.15795 -0.140284 2.51005
RightToes  0.000481921 0.542163 -0.142578
Spine  15.8387 1.16216 2.90708
Spine1  6.70573 1.94859 -0.965071
HEad  4.98017 -7.74218 7.23669
LeftShoulder1  5.57736 -11.5066 -31.1135
LeftArm  -1.55054 6.69237 -42.3942
LeftForeArm  -161.854 -49.4214 -170.087
LeftHand  -0.25398 0.0180481 5.50724
RightShoulder  4.61154 9.76012 28.7795
RightArm  -10.4202 13.2235 48.1615
RightForeArm  166.462 54.5882 165.623
RightHand  -2.41479 8.71283 -20.1177
LeftUpLeg  -10.5169 17.4087 9.61927
LeftLeg  13.9172 1.02342 -0.190758
LeftFoot  2.7477 0.881375 -7.26345
LeftToes  1.06245e-005 4.65869e-005 -8.65517e-006
1368
root  11.0329 39.5387 14.6236 176.137 77.5905 178.358
RightUpLeg  -9.04847 -25.4385 -7.05133
RightLeg  25.5467 -8.32969 -4.55316
RightFoot  -8.26006 -0.126684 2.61872
RightToes  0.000481921 0.542163 -0.142578
Spine  17.0438 0.971541 3.98663
Spine1  6.56012 2.29268 -2.37152
HEad  3.93247 -8.01131 7.41141
LeftShoulder1  5.64024 -11.7655 -30.8927
LeftArm  -2.07467 6.14211 -41.1031
LeftForeArm  -161.918 -50.8157 -169.566
LeftHand  -0.25398 0.0180481 5.50724
RightShoulder  4.54929 9.78044 28.2434
RightArm  -11.7942 15.3991 47.4634
RightForeArm  163.797 55.8303 164.761
RightHand  -2.75712 9.2534 -22.0421
LeftUpLeg  -11.9695 18.3445 9.20193
LeftLeg  17.7068 -0.0971328 0.371335
LeftFoot  0.875808 0.782394 -7.35218
LeftToes  1.06245e-005 4.65869e-005 -8.65517e-006
1369
root  10.9701 39.3173 14.491 175.937 78.3021 179.063
RightUpLeg  -9.26466 -24.9446 -7.43946
RightLeg  27.6579 -7.89071 -4.69821
RightFoot  -9.05424 -0.112843 2.57392
RightToes  0.000481921 0.542163 -0.142578
Spine  17.7886 0.893252 5.16093
Spine1  7.1775 2.73039 -3.42434
HEad  3.40721 -7.93104 7.35599
LeftShoulder1  5.66669 -11.7696 -31.0581
LeftArm  -2.49214 5.17383 -40.5843
LeftForeArm  -161.866 -51.786 -169.194
LeftHand  -0.25398 0.0180481 5.50724
RightShoulder  4.48178 9.69544 27.9441
RightArm  -12.4301 17.7416 46.8951
RightForeArm  161.778 56.9757 163.956
RightHand  -2.97548 9.66984 -23.092
LeftUpLeg  -12.4225 18.1224 9.64138
LeftLeg  20.911 0.544928 0.557079
LeftFoot  -0.748597 0.670729 -7.17981
LeftToes  1.06245e-005 4.65869e-005 -8.65517e-006
1370
root  10.9805 39.2345 14.3004 176.011 79.8859 179.895
RightUpLeg  -8.92099 -24.149 -7.74721
RightLeg  28.1614 -7.05231 -4.31601
RightFoot  -9.16975 -0.110554 2.55092
RightToes  0.000481921 0.542163 -0.142578
Spine  17.9247 1.07759 5.68584
Spine1  7.80328 3.13592 -3.69151
HEad  4.12027 -7.45769 7.07224
LeftShoulder1  5.70174 -11.4565 -32.0759
LeftArm  -2.63899 4.85897 -40.5872
LeftForeArm  -161.86 -51.6302 -169.254
LeftHand  -0.25398 0.0180481 5.50724
RightShoulder  4.421 9.50441 27.9778
RightArm  -11.7118 19.2108 46.7028
RightForeArm  161.87 57.9985 163.36
RightHand  -2.8344 9.24076 -22.6421
LeftUpLeg  -11.8233 18.9499 10.1431
LeftLeg  22.4617 1.01273 0.789232
LeftFoot  -1.74106 0.589325 -6.89093
LeftToes  1.06245e-005 4.65869e-005 -8.65517e-006
1371
root  11.0769 39.3146 14.0613 175.794 81.9763 179.911
RightUpLeg  -8.41821 -22.5909 -7.9223
RightLeg  27.1124 -6.53 -3.85394
RightFoot  -8.51876 -0.124408 2.69498
RightToes  0.000481921 0.542163 -0.142578
Spine  17.4945 1.33909 5.3985
Spine1  7.8276 3.27208 -3.39405
HEad  5.79025 -6.5759 6.80389
LeftShoulder1  5.72439 -10.9608 -33.5298
LeftArm  -2.45041 5.79671 -40.89
LeftForeArm  -162.467 -50.7014 -169.575
LeftHand  -0.25398 0.0180481 5.50724
RightShoulder  4.44866 9.33481 28.66
RightArm  -9.43917 18.4611 47.0692
RightForeArm  163.858 58.4538 163.253
RightHand  -2.45615 8.28188 -21.0602
LeftUpLeg  -10.5371 20.2513 10.3783
LeftLeg  22.158 1.65324 1.06928
LeftFoot  -2.09297 0.560725 -6.77413
LeftToes  1.06245e-005 4.65869e-005 -8.65517e-006
